<?xml version="1.0" standalone="no"?><!-- Generator: Gravit.io --><svg xmlns="http://www.w3.org/2000/svg" xmlns:xlink="http://www.w3.org/1999/xlink" style="isolation:isolate" viewBox="0 0 24 24" width="24" height="24"><defs><clipPath id="_clipPath_X0XdzYazNYyt9W9NElkW0r3kNWwkheMA"><rect width="24" height="24"/></clipPath></defs><g clip-path="url(#_clipPath_X0XdzYazNYyt9W9NElkW0r3kNWwkheMA)"><path d=" M 18 8.101 L 14 8.101 L 14 7.226 L 18 7.226 L 18 8.101 L 18 8.101 Z  M 18.84 14.226 C 18.07 16.484 12.891 17.192 12.891 12.666 C 12.891 8.083 18.399 8.289 18.944 11.794 C 18.989 12.089 19.006 12.487 18.999 13.043 L 14.589 13.043 C 14.485 14.758 16.349 14.975 16.993 14.227 L 18.84 14.227 L 18.84 14.226 Z  M 14.629 11.893 L 17.253 11.893 C 17.138 10.206 14.893 10.083 14.629 11.893 Z  M 8.771 15.969 L 5 15.969 L 5 7.239 L 9.056 7.239 C 12.25 7.286 12.311 10.415 10.643 11.267 C 12.662 12.002 12.729 15.969 8.771 15.969 Z  M 6.875 10.835 L 8.84 10.835 C 10.304 10.835 10.536 8.976 8.658 8.976 L 6.875 8.976 L 6.875 10.835 L 6.875 10.835 Z  M 8.729 12.289 L 6.875 12.289 L 6.875 14.236 L 8.699 14.236 C 10.481 14.235 10.372 12.289 8.729 12.289 Z  M 12 2 C 17.514 2 22 6.486 22 12 C 22 17.514 17.514 22 12 22 C 6.486 22 2 17.514 2 12 C 2 6.486 6.486 2 12 2 Z  M 12 0 C 5.373 0 0 5.373 0 12 C 0 18.627 5.373 24 12 24 C 18.627 24 24 18.627 24 12 C 24 5.373 18.627 0 12 0 Z " fill="rgb(255,255,255)"/></g></svg>