<?xml version="1.0" standalone="no"?><!-- Generator: Gravit.io --><svg xmlns="http://www.w3.org/2000/svg" xmlns:xlink="http://www.w3.org/1999/xlink" style="isolation:isolate" viewBox="0 0 24 24" width="24" height="24"><defs><clipPath id="_clipPath_LJNWjhYqkzb46p4hJLTp98O5E25vXhgl"><rect width="24" height="24"/></clipPath></defs><g clip-path="url(#_clipPath_LJNWjhYqkzb46p4hJLTp98O5E25vXhgl)"><path d=" M 12 2 C 17.514 2 22 6.486 22 12 C 22 17.514 17.514 22 12 22 C 6.486 22 2 17.514 2 12 C 2 6.486 6.486 2 12 2 Z  M 12 0 C 5.373 0 0 5.373 0 12 C 0 18.627 5.373 24 12 24 C 18.627 24 24 18.627 24 12 C 24 5.373 18.627 0 12 0 Z  M 12 6 C 8.687 6 6 8.686 6 12 C 6 15.313 8.687 18 12 18 C 15.313 18 18 15.313 18 12 C 18 8.686 15.313 6 12 6 Z  M 16.942 11.72 C 15.654 11.509 14.47 11.497 13.391 11.684 C 13.268 11.402 13.142 11.122 13.007 10.844 C 14.161 10.344 15.09 9.664 15.781 8.803 C 16.456 9.6 16.879 10.613 16.942 11.72 Z  M 15.021 8.08 C 14.417 8.857 13.587 9.471 12.529 9.92 C 12.02 8.99 11.439 8.082 10.784 7.201 C 11.174 7.102 11.58 7.043 12 7.043 C 13.139 7.043 14.184 7.433 15.021 8.08 Z  M 9.764 7.583 C 10.43 8.454 11.019 9.352 11.534 10.273 C 10.317 10.63 8.868 10.815 7.19 10.827 C 7.537 9.409 8.49 8.229 9.764 7.583 Z  M 7.043 12 L 7.051 11.873 C 8.974 11.87 10.635 11.648 12.026 11.211 C 12.143 11.448 12.255 11.688 12.361 11.927 C 10.671 12.456 9.278 13.538 8.192 15.167 C 7.475 14.307 7.043 13.203 7.043 12 Z  M 8.957 15.905 C 9.941 14.361 11.199 13.356 12.758 12.892 C 13.221 14.102 13.562 15.347 13.779 16.622 C 12.104 17.267 10.303 16.955 8.957 15.905 Z  M 14.751 16.12 C 14.533 14.943 14.211 13.793 13.791 12.671 C 14.729 12.539 15.762 12.573 16.891 12.769 C 16.672 14.163 15.876 15.366 14.751 16.12 Z " fill="rgb(255,255,255)"/></g></svg>