<?xml version="1.0" standalone="no"?><!-- Generator: Gravit.io --><svg xmlns="http://www.w3.org/2000/svg" xmlns:xlink="http://www.w3.org/1999/xlink" style="isolation:isolate" viewBox="0 0 24 24" width="24" height="24"><defs><clipPath id="_clipPath_FzplwxwYxL2yqaMC5VQ0oaJCfRQU2iaW"><rect width="24" height="24"/></clipPath></defs><g clip-path="url(#_clipPath_FzplwxwYxL2yqaMC5VQ0oaJCfRQU2iaW)"><path d=" M 12 2 C 17.514 2 22 6.486 22 12 C 22 17.514 17.514 22 12 22 C 6.486 22 2 17.514 2 12 C 2 6.486 6.486 2 12 2 Z  M 12 0 C 5.373 0 0 5.373 0 12 C 0 18.627 5.373 24 12 24 C 18.627 24 24 18.627 24 12 C 24 5.373 18.627 0 12 0 Z  M 10 10 L 8 10 L 8 12 L 10 12 L 10 18 L 13 18 L 13 12 L 14.82 12 L 15 10 L 13 10 L 13 9.167 C 13 8.689 13.096 8.5 13.558 8.5 L 15 8.5 L 15 6 L 12.596 6 C 10.798 6 10 6.792 10 8.308 L 10 10 L 10 10 Z " fill="rgb(255,255,255)"/></g></svg>