<?xml version="1.0" standalone="no"?><!-- Generator: Gravit.io --><svg xmlns="http://www.w3.org/2000/svg" xmlns:xlink="http://www.w3.org/1999/xlink" style="isolation:isolate" viewBox="0 0 24 24" width="24" height="24"><defs><clipPath id="_clipPath_lVpZ9ubaxcaNcNlL2s6T21BfLdpOFu2T"><rect width="24" height="24"/></clipPath></defs><g clip-path="url(#_clipPath_lVpZ9ubaxcaNcNlL2s6T21BfLdpOFu2T)"><path d=" M 12 2 C 17.514 2 22 6.486 22 12 C 22 17.514 17.514 22 12 22 C 6.486 22 2 17.514 2 12 C 2 6.486 6.486 2 12 2 Z  M 12 0 C 5.373 0 0 5.373 0 12 C 0 18.627 5.373 24 12 24 C 18.627 24 24 18.627 24 12 C 24 5.373 18.627 0 12 0 Z  M 9.5 11.5 L 9.5 12.7 L 11.485 12.7 C 11.405 13.214 10.884 14.21 9.5 14.21 C 8.306 14.21 7.33 13.22 7.33 12 C 7.33 10.78 8.306 9.79 9.5 9.79 C 10.181 9.79 10.635 10.08 10.896 10.331 L 11.845 9.415 C 11.235 8.845 10.444 8.5 9.5 8.5 C 7.564 8.5 6 10.065 6 12 C 6 13.935 7.564 15.5 9.5 15.5 C 11.52 15.5 12.859 14.081 12.859 12.081 C 12.859 11.851 12.835 11.676 12.804 11.501 L 9.5 11.501 L 9.5 11.5 Z  M 9.5 11.5 L 18 12.5 L 16.5 12.5 L 16.5 14 L 15.5 14 L 15.5 12.5 L 14 12.5 L 14 11.5 L 15.5 11.5 L 15.5 10 L 16.5 10 L 16.5 11.5 L 18 11.5 L 18 12.5 L 9.5 11.5 Z " fill="rgb(255,255,255)"/></g></svg>