<svg xmlns="http://www.w3.org/2000/svg" xmlns:xlink="http://www.w3.org/1999/xlink" style="isolation:isolate" viewBox="0 0 24 24" width="24" height="24"><defs><clipPath id="_clipPath_iWMtg8C3cVoQILWnJuJW2KuBZnMwPwKH"></clipPath></defs><g clip-path="url(#_clipPath_iWMtg8C3cVoQILWnJuJW2KuBZnMwPwKH)"><rect width="24" height="24" style="fill:rgb(0,0,0)"/><path d=" M 0 12 C 0 5.377 5.377 0 12 0 C 18.623 0 24 5.377 24 12 C 24 18.623 18.623 24 12 24 C 5.377 24 0 18.623 0 12 Z  M 2 12 C 2 9.3 3.1 6.8 4.9 4.9 C 6.8 3.1 9.3 2 12 2 C 14.7 2 17.2 3.1 19.1 4.9 C 20.9 6.8 22 9.3 22 12 C 22 14.7 20.9 17.2 19.1 19.1 C 17.2 20.9 14.7 22 12 22 C 9.3 22 6.8 20.9 4.9 19.1 C 3.1 17.2 2 14.7 2 12 Z  M 12 6 C 8.686 6 6 8.686 6 12 C 6 14.542 7.581 16.713 9.813 17.587 C 9.761 17.112 9.714 16.384 9.834 15.866 C 9.943 15.398 10.538 12.884 10.538 12.884 C 10.538 12.884 10.358 12.524 10.358 11.993 C 10.358 11.159 10.842 10.536 11.444 10.536 C 11.956 10.536 12.203 10.92 12.203 11.381 C 12.203 11.896 11.875 12.665 11.706 13.379 C 11.565 13.976 12.006 14.463 12.595 14.463 C 13.661 14.463 14.481 13.338 14.481 11.715 C 14.481 10.279 13.449 9.274 11.975 9.274 C 10.267 9.274 9.265 10.555 9.265 11.878 C 9.265 12.394 9.464 12.947 9.712 13.247 C 9.761 13.307 9.768 13.359 9.754 13.419 C 9.708 13.609 9.607 14.016 9.587 14.1 C 9.561 14.21 9.5 14.233 9.386 14.18 C 8.637 13.831 8.168 12.736 8.168 11.856 C 8.168 9.963 9.544 8.225 12.133 8.225 C 14.214 8.225 15.832 9.708 15.832 11.69 C 15.832 13.758 14.528 15.422 12.718 15.422 C 12.11 15.422 11.539 15.106 11.343 14.733 C 11.343 14.733 11.042 15.879 10.969 16.16 C 10.834 16.681 10.468 17.334 10.223 17.732 C 10.785 17.906 11.381 18 12 18 C 15.314 18 18 15.314 18 12 C 18 8.686 15.314 6 12 6 Z " fill-rule="evenodd" fill="rgb(255,255,255)"/></g></svg>