<?xml version="1.0" standalone="no"?><!-- Generator: Gravit.io --><svg xmlns="http://www.w3.org/2000/svg" xmlns:xlink="http://www.w3.org/1999/xlink" style="isolation:isolate" viewBox="0 0 24 24" width="24" height="24"><defs><clipPath id="_clipPath_Qk1CFefMx5bh4DKvIFdqfj4pmgAv6bIM"><rect width="24" height="24"/></clipPath></defs><g clip-path="url(#_clipPath_Qk1CFefMx5bh4DKvIFdqfj4pmgAv6bIM)"><path d=" M 12 2 C 17.514 2 22 6.486 22 12 C 22 17.514 17.514 22 12 22 C 6.486 22 2 17.514 2 12 C 2 6.486 6.486 2 12 2 Z  M 12 0 C 5.373 0 0 5.373 0 12 C 0 18.627 5.373 24 12 24 C 18.627 24 24 18.627 24 12 C 24 5.373 18.627 0 12 0 Z  M 10.71 14.646 C 10.71 15.394 10.103 16 9.356 16 C 8.607 16 8 15.394 8 14.646 C 8 13.899 8.607 13.293 9.355 13.293 C 10.103 13.294 10.71 13.899 10.71 14.646 Z  M 8 9.409 L 8 11.413 C 10.521 11.438 12.567 13.481 12.592 16 L 14.6 16 C 14.574 12.371 11.635 9.434 8 9.409 Z  M 8 8.005 C 12.407 8.025 15.98 11.586 15.993 16 L 18 16 C 17.988 10.487 13.52 6.019 8 6 L 8 8.005 L 8 8.005 Z " fill="rgb(255,255,255)"/></g></svg>