<?xml version="1.0" standalone="no"?><!-- Generator: Gravit.io --><svg xmlns="http://www.w3.org/2000/svg" xmlns:xlink="http://www.w3.org/1999/xlink" style="isolation:isolate" viewBox="0 0 24 24" width="24" height="24"><defs><clipPath id="_clipPath_fflXV8s2ljJdxPdNoisFFiev3cQMsynS"><rect width="24" height="24"/></clipPath></defs><g clip-path="url(#_clipPath_fflXV8s2ljJdxPdNoisFFiev3cQMsynS)"><path d=" M 12 2 C 17.514 2 22 6.486 22 12 C 22 17.514 17.514 22 12 22 C 6.486 22 2 17.514 2 12 C 2 6.486 6.486 2 12 2 Z  M 12 0 C 5.373 0 0 5.373 0 12 C 0 18.627 5.373 24 12 24 C 18.627 24 24 18.627 24 12 C 24 5.373 18.627 0 12 0 Z  M 8.914 8.267 C 8.614 8.939 8.733 10.143 8.781 10.985 C 8.457 11.164 8.041 10.849 7.806 10.849 C 7.561 10.849 7.268 11.01 7.223 11.25 C 7.19 11.423 7.267 11.675 7.823 11.895 C 8.038 11.98 8.55 12.08 8.668 12.359 C 8.834 12.751 7.813 14.561 6.209 14.825 C 6.083 14.845 5.993 14.957 6 15.084 C 6.028 15.572 7.121 15.762 7.605 15.838 C 7.655 15.905 7.695 16.188 7.758 16.404 C 7.786 16.501 7.86 16.616 8.049 16.616 C 8.295 16.616 8.705 16.426 9.418 16.544 C 10.117 16.661 10.774 17.651 12.035 17.651 C 13.208 17.651 13.907 16.655 14.58 16.544 C 14.969 16.479 15.304 16.5 15.678 16.573 C 15.935 16.623 16.166 16.652 16.24 16.399 C 16.304 16.18 16.344 15.903 16.392 15.838 C 16.872 15.763 17.97 15.573 17.998 15.085 C 18.005 14.958 17.915 14.846 17.79 14.826 C 16.213 14.566 15.161 12.762 15.331 12.36 C 15.449 12.082 15.957 11.982 16.176 11.896 C 16.583 11.735 16.787 11.538 16.782 11.31 C 16.776 11.018 16.425 10.843 16.166 10.843 C 15.902 10.843 15.524 11.155 15.217 10.986 C 15.265 10.137 15.383 8.938 15.084 8.267 C 14.517 6.995 13.254 6.351 11.992 6.351 C 10.74 6.35 9.486 6.984 8.914 8.267 Z " fill="rgb(255,255,255)"/></g></svg>